<svg width="44" height="46" viewBox="0 0 44 46" fill="none" xmlns="http://www.w3.org/2000/svg">
<path d="M21.7237 45.3391C21.6651 45.2789 21.6066 45.2188 21.548 45.1587C20.6697 44.2567 19.7914 43.2946 18.9131 42.3927C13.1748 36.3796 7.49511 30.3665 1.75683 24.2933C1.2884 23.8123 0.878527 23.3312 0.410096 22.8502C0.292989 22.7299 0.292989 22.6698 0.410096 22.5495C3.68911 19.3025 6.90957 16.0554 10.1886 12.8083C11.4182 11.6057 12.5893 10.4031 13.8189 9.2005C14.0531 9.0201 14.0531 9.0201 14.2288 9.2005C16.8052 11.9064 19.323 14.6123 21.8993 17.258C22.1336 17.4985 22.1336 17.4985 22.3678 17.258C24.0658 15.5744 25.7639 13.8306 27.5205 12.1469C27.8133 11.8462 27.8133 11.8462 27.5205 11.5456C26.7593 10.7639 26.0567 9.98219 25.2955 9.2005C24.7099 8.53906 24.0658 7.93775 23.4803 7.27631C23.1875 6.97566 22.8948 6.67501 22.602 6.37435C22.5434 6.31422 22.4849 6.25409 22.4849 6.25409C22.3678 6.13383 22.3092 6.13383 22.1921 6.25409C21.8993 6.55474 21.6066 6.8554 21.3138 7.15605C20.8454 7.6371 20.3184 8.17827 19.85 8.65932C19.6157 8.89984 19.6157 8.89984 19.4401 8.65932C18.7374 7.87762 17.9762 7.09592 17.2736 6.37435C17.0979 6.19396 17.0979 6.13383 17.2736 5.95344C18.7374 4.20965 20.4355 2.52599 22.1336 0.842325C22.3092 0.661933 22.3092 0.661933 22.4849 0.842325C25.9396 4.5103 29.3942 8.11814 32.8489 11.7861C32.966 11.9064 32.966 11.9665 32.8489 12.0868C29.3357 15.6345 25.7639 19.1822 22.1921 22.7299C22.0164 22.9103 22.0164 22.9103 21.8408 22.7299C20.8454 21.7077 19.85 20.6253 18.8545 19.6031C18.1519 18.8815 17.4492 18.0998 16.7466 17.3783C15.8683 16.4763 14.99 15.5142 14.1117 14.6123C13.9946 14.492 13.8775 14.492 13.7604 14.6123C12.9406 15.4541 12.0623 16.2959 11.2425 17.1378C11.0669 17.258 11.1254 17.3181 11.2425 17.4985C11.9452 18.2201 12.6478 19.0018 13.3505 19.7234C14.1117 20.5051 14.8143 21.2868 15.5755 22.0685C16.2782 22.79 16.9808 23.5116 17.6835 24.2933C18.269 24.8946 18.8545 25.5561 19.4986 26.1574C20.0842 26.7587 20.6697 27.4201 21.2552 28.0214C21.4309 28.2018 21.6066 28.3822 21.7822 28.6227C21.9579 28.8031 22.0164 28.8031 22.1921 28.6227C22.7191 28.0815 23.3046 27.5404 23.8316 26.9992C26.3494 24.4737 28.8087 22.0083 31.3265 19.4829C32.7903 18.0397 34.1956 16.5966 35.6595 15.1534C35.8351 14.973 35.8351 14.973 36.0694 15.1534C38.5872 17.8593 41.1635 20.5051 43.6813 23.211C43.7985 23.3312 43.7985 23.4515 43.6813 23.5717C42.2761 24.9547 40.8708 26.3979 39.4655 27.7809C33.6686 33.5534 27.9304 39.326 22.1336 45.1587C21.9579 45.0985 21.8408 45.2188 21.7237 45.3391ZM21.7822 39.9273C21.8408 39.8672 21.9579 39.807 22.0164 39.7469C27.4034 34.3351 32.7903 28.9234 38.1773 23.5717C38.4701 23.2711 38.4701 23.2711 38.1773 22.9704C37.4161 22.1286 36.6549 21.3469 35.8351 20.5652C35.6595 20.3848 35.6009 20.3848 35.4253 20.5652C34.7226 21.2868 33.9614 22.0083 33.2588 22.7299C29.5113 26.5181 25.7639 30.2462 21.9579 34.0345C21.7822 34.2149 21.7822 34.2149 21.6066 34.0345C19.9085 32.2306 18.1519 30.4266 16.4538 28.6227C13.8189 25.8567 11.184 23.0306 8.49052 20.2645C8.31486 20.0842 8.2563 20.0842 8.08064 20.2645C7.26089 21.0462 6.49969 21.8881 5.67994 22.6698C5.44572 22.9103 5.44572 22.9103 5.67994 23.1508C9.95436 27.6606 14.1702 32.1103 18.4447 36.6201C19.4401 37.7025 20.494 38.7848 21.4895 39.8672C21.6651 39.807 21.7237 39.807 21.7822 39.9273Z" fill="url(#paint0_linear_0_600)"/>
<defs>
<linearGradient id="paint0_linear_0_600" x1="4.06877" y1="14.4247" x2="40.2727" y2="30.8642" gradientUnits="userSpaceOnUse">
<stop stop-color="#57D0D5"/>
<stop offset="0.5471" stop-color="#5C8CD2"/>
<stop offset="1" stop-color="#6151CF"/>
</linearGradient>
</defs>
</svg>
