<svg width="22" height="22" viewBox="0 0 22 22" fill="none" xmlns="http://www.w3.org/2000/svg">
<path fill-rule="evenodd" clip-rule="evenodd" d="M15.9835 4.58044C15.9812 4.55361 15.9788 4.52683 15.9761 4.50012C15.7253 1.97346 13.5935 0.00012207 11.0008 0.00012207C8.40815 0.00012207 6.27637 1.97346 6.02551 4.50012C6.02286 4.52683 6.02042 4.55361 6.01819 4.58044H1.83871H0.838715V5.58044V15.9998C0.838715 19.3135 3.52501 21.9998 6.83872 21.9998H15.1613C18.475 21.9998 21.1613 19.3135 21.1613 15.9998V5.58044V4.58044H20.1613H15.9835ZM11.0008 1.00012C8.96102 1.00012 7.27782 2.52697 7.03177 4.50012H14.9699C14.7238 2.52697 13.0406 1.00012 11.0008 1.00012ZM1.83871 5.58044H20.1613V15.9998C20.1613 18.7612 17.9227 20.9998 15.1613 20.9998H6.83872C4.07729 20.9998 1.83871 18.7612 1.83871 15.9998V5.58044Z" fill="white"/>
</svg>
