<svg width="22" height="22" viewBox="0 0 22 22" fill="none" xmlns="http://www.w3.org/2000/svg">
<path fill-rule="evenodd" clip-rule="evenodd" d="M11 21C5.47715 21 1 16.5228 1 11C1 5.47715 5.47715 1 11 1C16.5228 1 21 5.47715 21 11C21 16.5228 16.5228 21 11 21ZM0 11C0 4.92487 4.92487 0 11 0C17.0751 0 22 4.92487 22 11C22 17.0751 17.0751 22 11 22C4.92487 22 0 17.0751 0 11ZM10.1246 12.4855V12.5409H11.2326V12.4855C11.2387 12.1039 11.2787 11.7853 11.3526 11.5299C11.4264 11.2745 11.5449 11.0544 11.7081 10.8697C11.8712 10.682 12.0881 10.5035 12.359 10.3342C12.6298 10.168 12.8606 9.97723 13.0514 9.76179C13.2453 9.54635 13.3931 9.30168 13.4946 9.02777C13.5993 8.75386 13.6516 8.44763 13.6516 8.10909C13.6516 7.62898 13.5408 7.20118 13.3192 6.82571C13.1007 6.45024 12.7898 6.15478 12.3867 5.93935C11.9866 5.72391 11.5157 5.61619 10.974 5.61619C10.4755 5.61619 10.0215 5.71468 9.61217 5.91165C9.20592 6.10862 8.87815 6.3933 8.62886 6.7657C8.38265 7.13809 8.24723 7.58589 8.22261 8.10909H9.38596C9.41059 7.74593 9.50138 7.45201 9.65834 7.22734C9.8153 7.00268 10.0107 6.83802 10.2446 6.73338C10.4785 6.62874 10.7217 6.57642 10.974 6.57642C11.2633 6.57642 11.5265 6.63643 11.7635 6.75646C12.0004 6.87649 12.1897 7.0473 12.3313 7.26889C12.4728 7.49048 12.5436 7.75208 12.5436 8.05369C12.5436 8.29683 12.5005 8.51842 12.4144 8.71847C12.3313 8.91851 12.2174 9.09548 12.0728 9.24936C11.9281 9.40017 11.765 9.53097 11.5834 9.64176C11.2818 9.82334 11.0233 10.0219 10.8078 10.2373C10.5924 10.4527 10.4262 10.7343 10.3093 11.0821C10.1923 11.4299 10.1308 11.8977 10.1246 12.4855ZM10.1292 15.0292C10.2923 15.1923 10.4878 15.2739 10.7155 15.2739C10.8694 15.2739 11.0079 15.2369 11.131 15.1631C11.2572 15.0861 11.3572 14.9846 11.4311 14.8584C11.508 14.7322 11.5465 14.5937 11.5465 14.4429C11.5465 14.2152 11.4649 14.0197 11.3018 13.8566C11.1387 13.6935 10.9433 13.6119 10.7155 13.6119C10.4878 13.6119 10.2923 13.6935 10.1292 13.8566C9.9661 14.0197 9.88454 14.2152 9.88454 14.4429C9.88454 14.6706 9.9661 14.8661 10.1292 15.0292Z" fill="white"/>
</svg>
