<svg width="384" height="158" viewBox="0 0 384 158" fill="none" xmlns="http://www.w3.org/2000/svg">
<line opacity="0.25" x1="-12" y1="6.5" x2="396" y2="6.50001" stroke="#F2F2F2" stroke-width="3"/>
<line opacity="0.25" x1="-12" y1="20.5" x2="396" y2="20.5" stroke="#F2F2F2" stroke-width="3"/>
<line opacity="0.25" x1="-12" y1="35.5" x2="396" y2="35.5" stroke="#F2F2F2" stroke-width="3"/>
<line opacity="0.25" x1="-12" y1="49.5" x2="396" y2="49.5" stroke="#F2F2F2" stroke-width="3"/>
<line opacity="0.25" x1="-12" y1="63.5" x2="396" y2="63.5" stroke="#F2F2F2" stroke-width="3"/>
<line opacity="0.25" x1="-12" y1="77.5" x2="396" y2="77.5" stroke="#F2F2F2" stroke-width="3"/>
<line opacity="0.25" x1="-12" y1="91.5" x2="396" y2="91.5" stroke="#F2F2F2" stroke-width="3"/>
<line opacity="0.25" x1="-12" y1="105.5" x2="396" y2="105.5" stroke="#F2F2F2" stroke-width="3"/>
<line opacity="0.25" x1="-12" y1="119.5" x2="396" y2="119.5" stroke="#F2F2F2" stroke-width="3"/>
<line opacity="0.25" x1="-12" y1="134.5" x2="396" y2="134.5" stroke="#F2F2F2" stroke-width="3"/>
<line opacity="0.25" x1="-12" y1="148.5" x2="396" y2="148.5" stroke="#F2F2F2" stroke-width="3"/>
<line opacity="0.25" x1="172.5" y1="-21" x2="172.5" y2="179" stroke="#F2F2F2" stroke-width="3"/>
<line opacity="0.25" x1="158.5" y1="-21" x2="158.5" y2="179" stroke="#F2F2F2" stroke-width="3"/>
<line opacity="0.25" x1="144.5" y1="-21" x2="144.5" y2="179" stroke="#F2F2F2" stroke-width="3"/>
<line opacity="0.25" x1="130.5" y1="-21" x2="130.5" y2="179" stroke="#F2F2F2" stroke-width="3"/>
<line opacity="0.25" x1="116.5" y1="-21" x2="116.5" y2="179" stroke="#F2F2F2" stroke-width="3"/>
<line opacity="0.25" x1="102.5" y1="-21" x2="102.5" y2="179" stroke="#F2F2F2" stroke-width="3"/>
<line opacity="0.25" x1="88.5" y1="-21" x2="88.5" y2="179" stroke="#F2F2F2" stroke-width="3"/>
<line opacity="0.25" x1="74.5" y1="-21" x2="74.5" y2="179" stroke="#F2F2F2" stroke-width="3"/>
<line opacity="0.25" x1="60.5" y1="-21" x2="60.5" y2="179" stroke="#F2F2F2" stroke-width="3"/>
<line opacity="0.25" x1="46.5" y1="-21" x2="46.5" y2="179" stroke="#F2F2F2" stroke-width="3"/>
<line opacity="0.25" x1="32.5" y1="-21" x2="32.5" y2="179" stroke="#F2F2F2" stroke-width="3"/>
<line opacity="0.25" x1="18.5" y1="-21" x2="18.5" y2="179" stroke="#F2F2F2" stroke-width="3"/>
<line opacity="0.25" x1="4.64844" y1="-21" x2="4.64842" y2="179" stroke="#F2F2F2" stroke-width="3"/>
<line opacity="0.25" x1="354.5" y1="-21" x2="354.5" y2="179" stroke="#F2F2F2" stroke-width="3"/>
<line opacity="0.25" x1="340.5" y1="-21" x2="340.5" y2="179" stroke="#F2F2F2" stroke-width="3"/>
<line opacity="0.25" x1="326.5" y1="-21" x2="326.5" y2="179" stroke="#F2F2F2" stroke-width="3"/>
<line opacity="0.25" x1="312.5" y1="-21" x2="312.5" y2="179" stroke="#F2F2F2" stroke-width="3"/>
<line opacity="0.25" x1="298.5" y1="-21" x2="298.5" y2="179" stroke="#F2F2F2" stroke-width="3"/>
<line opacity="0.25" x1="284.5" y1="-21" x2="284.5" y2="179" stroke="#F2F2F2" stroke-width="3"/>
<line opacity="0.25" x1="270.5" y1="-21" x2="270.5" y2="179" stroke="#F2F2F2" stroke-width="3"/>
<line opacity="0.25" x1="256.5" y1="-21" x2="256.5" y2="179" stroke="#F2F2F2" stroke-width="3"/>
<line opacity="0.25" x1="242.5" y1="-21" x2="242.5" y2="179" stroke="#F2F2F2" stroke-width="3"/>
<line opacity="0.25" x1="228.5" y1="-21" x2="228.5" y2="179" stroke="#F2F2F2" stroke-width="3"/>
<line opacity="0.25" x1="214.5" y1="-21" x2="214.5" y2="179" stroke="#F2F2F2" stroke-width="3"/>
<line opacity="0.25" x1="382.5" y1="-21" x2="382.5" y2="179" stroke="#F2F2F2" stroke-width="3"/>
<line opacity="0.25" x1="200.5" y1="-21" x2="200.5" y2="179" stroke="#F2F2F2" stroke-width="3"/>
<line opacity="0.25" x1="368.5" y1="-21" x2="368.5" y2="179" stroke="#F2F2F2" stroke-width="3"/>
<line opacity="0.25" x1="186.5" y1="-21" x2="186.5" y2="179" stroke="#F2F2F2" stroke-width="3"/>
</svg>
