<svg width="22" height="22" viewBox="0 0 22 22" fill="none" xmlns="http://www.w3.org/2000/svg">
<path d="M16 8.91561L6 3.35724M12.4171 1.36596L19.56 5.33602C19.9975 5.57911 20.3611 5.93042 20.614 6.35432C20.8669 6.77822 21.0001 7.25964 21 7.74974V14.2503C21.0001 14.7404 20.8669 15.2218 20.614 15.6457C20.3611 16.0696 19.9975 16.4209 19.56 16.664L12.4171 20.634C11.9855 20.8739 11.4971 21 11 21C10.5029 21 10.0145 20.8739 9.58286 20.634L2.44 16.664C2.00249 16.4209 1.63885 16.0696 1.38596 15.6457C1.13306 15.2218 0.999911 14.7404 1 14.2503V7.74974C0.999911 7.25964 1.13306 6.77822 1.38596 6.35432C1.63885 5.93042 2.00249 5.57911 2.44 5.33602L9.58286 1.36596C10.0145 1.12614 10.5029 1 11 1C11.4971 1 11.9855 1.12614 12.4171 1.36596Z" stroke="white" stroke-linecap="round" stroke-linejoin="round"/>
<path d="M1.5 6.5L9.68739 11.186C10.0908 11.4056 10.5418 11.5205 11 11.5205C11.4582 11.5205 11.9092 11.4056 12.3126 11.186L20.5 6.5M11 11.9V21" stroke="white" stroke-linecap="round" stroke-linejoin="round"/>
</svg>
