<svg width="166" height="46" viewBox="0 0 166 46" fill="none" xmlns="http://www.w3.org/2000/svg">
<path d="M21.7237 45.3391C21.6651 45.2789 21.6066 45.2188 21.548 45.1587C20.6697 44.2567 19.7914 43.2946 18.9131 42.3927C13.1748 36.3796 7.49511 30.3665 1.75683 24.2933C1.2884 23.8123 0.878527 23.3312 0.410096 22.8502C0.292989 22.7299 0.292989 22.6698 0.410096 22.5495C3.68911 19.3025 6.90957 16.0554 10.1886 12.8083C11.4182 11.6057 12.5893 10.4031 13.8189 9.2005C14.0531 9.0201 14.0531 9.0201 14.2288 9.2005C16.8052 11.9064 19.323 14.6123 21.8993 17.258C22.1336 17.4985 22.1336 17.4985 22.3678 17.258C24.0658 15.5744 25.7639 13.8306 27.5205 12.1469C27.8133 11.8462 27.8133 11.8462 27.5205 11.5456C26.7593 10.7639 26.0567 9.98219 25.2955 9.2005C24.7099 8.53906 24.0658 7.93775 23.4803 7.27631C23.1875 6.97566 22.8948 6.67501 22.602 6.37435C22.5434 6.31422 22.4849 6.25409 22.4849 6.25409C22.3678 6.13383 22.3092 6.13383 22.1921 6.25409C21.8993 6.55474 21.6066 6.8554 21.3138 7.15605C20.8454 7.6371 20.3184 8.17827 19.85 8.65932C19.6157 8.89984 19.6157 8.89984 19.4401 8.65932C18.7374 7.87762 17.9762 7.09592 17.2736 6.37435C17.0979 6.19396 17.0979 6.13383 17.2736 5.95344C18.7374 4.20965 20.4355 2.52599 22.1336 0.842325C22.3092 0.661933 22.3092 0.661933 22.4849 0.842325C25.9396 4.5103 29.3942 8.11814 32.8489 11.7861C32.966 11.9064 32.966 11.9665 32.8489 12.0868C29.3357 15.6345 25.7639 19.1822 22.1921 22.7299C22.0164 22.9103 22.0164 22.9103 21.8408 22.7299C20.8454 21.7077 19.85 20.6253 18.8545 19.6031C18.1519 18.8815 17.4492 18.0998 16.7466 17.3783C15.8683 16.4763 14.99 15.5142 14.1117 14.6123C13.9946 14.492 13.8775 14.492 13.7604 14.6123C12.9406 15.4541 12.0623 16.2959 11.2425 17.1378C11.0669 17.258 11.1254 17.3181 11.2425 17.4985C11.9452 18.2201 12.6478 19.0018 13.3505 19.7234C14.1117 20.5051 14.8143 21.2868 15.5755 22.0685C16.2782 22.79 16.9808 23.5116 17.6835 24.2933C18.269 24.8946 18.8545 25.5561 19.4986 26.1574C20.0842 26.7587 20.6697 27.4201 21.2552 28.0214C21.4309 28.2018 21.6066 28.3822 21.7822 28.6227C21.9579 28.8031 22.0164 28.8031 22.1921 28.6227C22.7191 28.0815 23.3046 27.5404 23.8316 26.9992C26.3494 24.4737 28.8087 22.0083 31.3265 19.4829C32.7903 18.0397 34.1956 16.5966 35.6595 15.1534C35.8351 14.973 35.8351 14.973 36.0694 15.1534C38.5872 17.8593 41.1635 20.5051 43.6813 23.211C43.7985 23.3312 43.7985 23.4515 43.6813 23.5717C42.2761 24.9547 40.8708 26.3979 39.4655 27.7809C33.6686 33.5534 27.9304 39.326 22.1336 45.1587C21.9579 45.0985 21.8408 45.2188 21.7237 45.3391ZM21.7822 39.9273C21.8408 39.8672 21.9579 39.807 22.0164 39.7469C27.4034 34.3351 32.7903 28.9234 38.1773 23.5717C38.4701 23.2711 38.4701 23.2711 38.1773 22.9704C37.4161 22.1286 36.6549 21.3469 35.8351 20.5652C35.6595 20.3848 35.6009 20.3848 35.4253 20.5652C34.7226 21.2868 33.9614 22.0083 33.2588 22.7299C29.5113 26.5181 25.7639 30.2462 21.9579 34.0345C21.7822 34.2149 21.7822 34.2149 21.6066 34.0345C19.9085 32.2306 18.1519 30.4266 16.4538 28.6227C13.8189 25.8567 11.184 23.0306 8.49052 20.2645C8.31486 20.0842 8.2563 20.0842 8.08064 20.2645C7.26089 21.0462 6.49969 21.8881 5.67994 22.6698C5.44572 22.9103 5.44572 22.9103 5.67994 23.1508C9.95436 27.6606 14.1702 32.1103 18.4447 36.6201C19.4401 37.7025 20.494 38.7848 21.4895 39.8672C21.6651 39.807 21.7237 39.807 21.7822 39.9273Z" fill="url(#paint0_linear_0_1225)"/>
<path d="M54.1043 24.1733C52.8746 24.1733 51.9378 23.8726 51.3522 23.2713C50.7667 22.67 50.4739 21.7079 50.4739 20.4452V16.5968C50.4739 15.274 50.7667 14.372 51.3522 13.7106C51.9378 13.1092 52.8746 12.8086 54.1043 12.8086H56.0951C57.1491 12.8086 57.9103 13.0491 58.4373 13.47C58.9642 13.8909 59.3156 14.6125 59.3741 15.5145C59.4327 15.755 59.3741 15.9354 59.257 16.0557C59.1399 16.1759 58.9642 16.236 58.73 16.236C58.3202 16.236 58.0859 15.9955 58.0274 15.5145C57.9688 14.9733 57.7932 14.6726 57.5004 14.4923C57.2076 14.3119 56.7392 14.2517 56.0951 14.2517H54.1043C53.5187 14.2517 53.0503 14.3119 52.7575 14.4321C52.4062 14.5524 52.172 14.7929 52.0549 15.1537C51.9378 15.5145 51.8207 15.9955 51.8207 16.5968V20.4452C51.8207 21.0465 51.8792 21.5275 52.0549 21.8883C52.172 22.2491 52.4062 22.4896 52.7575 22.6099C53.1089 22.7302 53.5773 22.8504 54.1628 22.8504H56.1537C56.7978 22.8504 57.2662 22.7302 57.559 22.5498C57.8517 22.3694 58.0274 22.0086 58.0859 21.5275C58.1445 21.0465 58.3787 20.806 58.7886 20.806C59.0228 20.806 59.1985 20.8661 59.3156 20.9864C59.4327 21.1066 59.4912 21.287 59.4327 21.5275C59.3741 22.4896 59.0228 23.1511 58.4958 23.572C57.9688 23.9929 57.1491 24.2334 56.1537 24.2334H54.1043V24.1733Z" fill="black"/>
<path d="M64.292 24.1729C64.1163 24.1729 63.9407 24.1128 63.8236 23.9324C63.7065 23.8121 63.5894 23.6317 63.5894 23.4513V13.4696C63.5894 13.2892 63.6479 13.1088 63.8236 12.9886C63.9407 12.8683 64.1163 12.748 64.292 12.748C64.4677 12.748 64.6433 12.8082 64.7604 12.9886C64.8775 13.1088 64.9946 13.2892 64.9946 13.4696V17.6788H71.6698V13.4696C71.6698 13.2892 71.7283 13.1088 71.904 12.9886C72.0211 12.8683 72.1968 12.748 72.3724 12.748C72.5481 12.748 72.7237 12.8082 72.8409 12.9886C72.958 13.1088 73.0751 13.2892 73.0751 13.4696V23.4513C73.0751 23.6317 73.0165 23.8121 72.8409 23.9324C72.7237 24.0526 72.5481 24.1729 72.3724 24.1729C72.1968 24.1729 72.0211 24.1128 71.904 23.9324C71.7869 23.8121 71.6698 23.6317 71.6698 23.4513V19.0618H64.9946V23.4513C64.9946 23.6317 64.9361 23.8121 64.7604 23.9324C64.6433 24.1128 64.4677 24.1729 64.292 24.1729Z" fill="black"/>
<path d="M78.521 24.1729C78.2867 24.1729 78.1111 24.1128 77.994 23.9925C77.8769 23.8722 77.8183 23.6918 77.8183 23.4513V13.4696C77.8183 13.2291 77.8769 13.0487 77.994 12.9284C78.1111 12.8082 78.2867 12.748 78.521 12.748C78.7552 12.748 78.9308 12.8082 79.0479 12.9284C79.165 13.0487 79.2236 13.2291 79.2236 13.4696V23.4513C79.2236 23.6918 79.165 23.8722 79.0479 23.9925C78.9308 24.1128 78.7552 24.1729 78.521 24.1729Z" fill="black"/>
<path d="M84.6694 24.1729C84.201 24.1729 83.9667 23.9324 83.9667 23.4513V13.4696C83.9667 12.9886 84.201 12.748 84.6694 12.748C84.9036 12.748 85.1378 12.8683 85.372 13.169L91.9301 21.8879H91.5787V13.4696C91.5787 12.9886 91.813 12.748 92.2814 12.748C92.7498 12.748 92.984 12.9886 92.984 13.4696V23.4513C92.984 23.9324 92.7498 24.1729 92.2814 24.1729C92.0472 24.1729 91.8129 24.0526 91.5787 23.752L85.0207 15.033H85.372V23.4513C85.372 23.9324 85.1378 24.1729 84.6694 24.1729Z" fill="black"/>
<path d="M97.1991 24.1132C96.7893 23.9328 96.6136 23.6321 96.7893 23.2112L100.712 13.3498C100.888 12.989 101.122 12.8086 101.474 12.8086H101.532C101.883 12.8086 102.118 12.989 102.235 13.3498L106.216 23.2112C106.392 23.6321 106.275 23.9929 105.865 24.1132C105.455 24.2936 105.104 24.1733 104.987 23.7524L104.108 21.5275H98.9558L98.136 23.7524C97.9603 24.1733 97.6676 24.2936 97.1991 24.1132ZM99.4827 20.0844H103.464L101.415 14.9733L99.4827 20.0844Z" fill="black"/>
<path d="M112.306 24.1729C111.369 24.1729 110.666 23.9925 110.139 23.5716C109.612 23.1507 109.32 22.6095 109.144 21.7677C109.144 21.5271 109.144 21.3467 109.32 21.2265C109.437 21.1062 109.612 21.0461 109.847 21.0461C110.081 21.0461 110.257 21.1062 110.374 21.2265C110.491 21.3467 110.549 21.5271 110.608 21.7677C110.666 22.1284 110.842 22.4291 111.135 22.5494C111.428 22.6696 111.837 22.7899 112.364 22.7899H114.707C115.409 22.7899 115.878 22.6696 116.17 22.369C116.405 22.1284 116.58 21.6474 116.58 20.9258C116.58 20.2043 116.463 19.7232 116.17 19.4226C115.936 19.182 115.409 19.0016 114.765 19.0016H112.716C111.662 19.0016 110.901 18.7611 110.432 18.2199C109.905 17.6788 109.671 16.8971 109.671 15.8748C109.671 14.7925 109.905 14.0108 110.432 13.5297C110.901 13.0487 111.662 12.748 112.716 12.748H114.648C115.526 12.748 116.17 12.9284 116.697 13.2892C117.166 13.65 117.517 14.1912 117.634 14.9729C117.693 15.2134 117.634 15.3938 117.517 15.5141C117.4 15.6343 117.224 15.6945 116.99 15.6945C116.756 15.6945 116.58 15.6343 116.522 15.5141C116.405 15.3938 116.346 15.2134 116.288 14.9729C116.229 14.6121 116.053 14.4317 115.761 14.3114C115.468 14.1912 115.175 14.1311 114.648 14.1311H112.716C112.072 14.1311 111.603 14.2513 111.369 14.4918C111.135 14.7324 111.018 15.1533 111.018 15.8147C111.018 16.4762 111.135 16.9572 111.369 17.1977C111.603 17.4382 112.013 17.5585 112.716 17.5585H114.765C115.819 17.5585 116.639 17.799 117.166 18.3402C117.693 18.8814 117.986 19.7232 117.986 20.8056C117.986 21.948 117.751 22.7297 117.224 23.2709C116.697 23.8121 115.878 24.0526 114.824 24.0526H112.306V24.1729Z" fill="black"/>
<path d="M122.964 24.1729C122.496 24.1729 122.261 23.9324 122.261 23.4513V13.4696C122.261 12.9886 122.496 12.748 122.964 12.748H126.829C127.824 12.748 128.585 13.0487 129.112 13.5899C129.639 14.1311 129.932 14.9128 129.932 15.935V16.416C129.932 17.4382 129.639 18.2199 129.112 18.7611C128.585 19.3023 127.824 19.6029 126.829 19.6029H123.667V23.4513C123.608 23.9324 123.374 24.1729 122.964 24.1729ZM123.608 18.2199H126.77C127.414 18.2199 127.824 18.0997 128.117 17.799C128.351 17.5585 128.527 17.0775 128.527 16.416V15.935C128.527 15.2735 128.41 14.8526 128.117 14.552C127.883 14.2513 127.414 14.1311 126.77 14.1311H123.608V18.2199Z" fill="black"/>
<path d="M132.157 24.1132C131.747 23.9328 131.571 23.6321 131.747 23.2112L135.67 13.3498C135.846 12.989 136.08 12.8086 136.431 12.8086H136.49C136.841 12.8086 137.075 12.989 137.192 13.3498L141.174 23.2112C141.35 23.6321 141.233 23.9929 140.823 24.1132C140.413 24.2936 140.062 24.1733 139.944 23.7524L139.066 21.5275H133.972L133.152 23.7524C132.859 24.1733 132.567 24.2936 132.157 24.1132ZM134.44 20.0844H138.422L136.373 14.9733L134.44 20.0844Z" fill="black"/>
<path d="M148.083 24.1733C146.854 24.1733 145.917 23.8726 145.331 23.2713C144.746 22.67 144.453 21.7079 144.453 20.4452V16.5968C144.453 15.274 144.746 14.372 145.331 13.7106C145.917 13.1092 146.854 12.8086 148.083 12.8086H150.074C151.128 12.8086 151.889 13.0491 152.416 13.47C152.943 13.8909 153.295 14.6125 153.353 15.5145C153.412 15.755 153.353 15.9354 153.236 16.0557C153.119 16.1759 152.943 16.236 152.709 16.236C152.299 16.236 152.065 15.9955 152.006 15.5145C151.948 14.9733 151.772 14.6726 151.479 14.4923C151.187 14.3119 150.718 14.2517 150.074 14.2517H148.083C147.498 14.2517 147.029 14.3119 146.737 14.4321C146.385 14.5524 146.151 14.7929 146.034 15.1537C145.917 15.5145 145.8 15.9955 145.8 16.5968V20.4452C145.8 21.0465 145.858 21.5275 146.034 21.8883C146.151 22.2491 146.385 22.4896 146.737 22.6099C147.088 22.7302 147.556 22.8504 148.142 22.8504H150.133C150.777 22.8504 151.245 22.7302 151.538 22.5498C151.831 22.3694 152.006 22.0086 152.065 21.5275C152.124 21.0465 152.358 20.806 152.768 20.806C153.002 20.806 153.178 20.8661 153.295 20.9864C153.412 21.1066 153.47 21.287 153.412 21.5275C153.353 22.4896 153.002 23.1511 152.475 23.572C151.948 23.9929 151.128 24.2334 150.133 24.2334H148.083V24.1733Z" fill="black"/>
<path d="M158.271 24.1729C157.803 24.1729 157.568 23.9324 157.568 23.4513V13.4696C157.568 12.9886 157.803 12.748 158.271 12.748H164.185C164.653 12.748 164.888 12.9886 164.888 13.4696C164.888 13.9507 164.653 14.1912 164.185 14.1912H158.974V17.7389H162.253C162.721 17.7389 162.955 17.9794 162.955 18.4605C162.955 18.9415 162.721 19.182 162.253 19.182H158.974V22.7899H164.185C164.653 22.7899 164.888 23.0304 164.888 23.5114C164.888 23.9925 164.653 24.233 164.185 24.233H158.271V24.1729Z" fill="black"/>
<path d="M51.6436 31.8704V33.2534H53.2245C53.3416 33.2534 53.4002 33.2534 53.4587 33.3136C53.5173 33.3737 53.5173 33.4338 53.5173 33.5541C53.5173 33.6142 53.5173 33.6743 53.4587 33.7345C53.4002 33.7946 53.3416 33.7946 53.2245 33.7946H51.6436V35.5384C51.6436 35.5985 51.585 35.7188 51.5265 35.7789C51.4679 35.839 51.4093 35.8992 51.2922 35.8992C51.1751 35.8992 51.1166 35.839 51.058 35.7789C50.9995 35.7188 50.9409 35.6587 50.9409 35.5384V31.5698C50.9409 31.5096 50.9995 31.3894 51.058 31.3292C51.1166 31.2691 51.1751 31.209 51.2922 31.209H53.5173C53.6344 31.209 53.6929 31.209 53.7515 31.2691C53.8101 31.3292 53.8101 31.3894 53.8101 31.5096C53.8101 31.5698 53.7515 31.6299 53.6929 31.69C53.6344 31.7502 53.6344 31.8704 53.5173 31.8704H51.6436Z" fill="#7A7A7A"/>
<path d="M60.9541 34.8172C60.7784 35.178 60.4857 35.4787 60.1929 35.6591C59.8416 35.8395 59.4902 35.9597 59.0804 35.9597C58.6705 35.9597 58.3192 35.8395 57.9678 35.6591C57.6165 35.4787 57.3823 35.178 57.2066 34.8172C57.031 34.4565 56.9139 34.0355 56.9139 33.6146C56.9139 33.1937 57.031 32.7728 57.2066 32.412C57.3823 32.0512 57.6751 31.7506 57.9678 31.5702C58.3192 31.3898 58.6705 31.2695 59.0804 31.2695C59.4902 31.2695 59.8416 31.3898 60.1929 31.5702C60.5442 31.7506 60.7784 32.0512 60.9541 32.412C61.1298 32.7728 61.2469 33.1937 61.2469 33.6146C61.2469 34.0355 61.1298 34.4565 60.9541 34.8172ZM60.3686 32.7127C60.2514 32.4721 60.0758 32.2316 59.8416 32.1114C59.6074 31.931 59.3731 31.8708 59.0804 31.8708C58.7876 31.8708 58.5534 31.931 58.3192 32.1114C58.085 32.2316 57.9093 32.4721 57.7922 32.7127C57.6751 32.9532 57.6165 33.2538 57.6165 33.6146C57.6165 33.9754 57.6751 34.2159 57.7922 34.5166C57.9093 34.7571 58.085 34.9976 58.3192 35.1179C58.5534 35.2983 58.7876 35.3584 59.0804 35.3584C59.3731 35.3584 59.6074 35.2983 59.8416 35.1179C60.0758 34.9375 60.2514 34.7571 60.3686 34.5166C60.4857 34.2761 60.5442 33.9754 60.5442 33.6146C60.5442 33.2538 60.4857 32.9532 60.3686 32.7127Z" fill="#7A7A7A"/>
<path d="M68.0977 35.4778C68.0977 35.538 68.1562 35.5981 68.1562 35.5981C68.1562 35.7184 68.1562 35.7785 68.0977 35.7785C68.0391 35.8386 67.9806 35.8386 67.8635 35.8386C67.8049 35.8386 67.6878 35.8386 67.6292 35.7785C67.5121 35.7184 67.395 35.5981 67.3365 35.4177C67.2779 35.2373 67.2194 34.9968 67.2194 34.6962C67.2194 34.4556 67.1608 34.3354 67.0437 34.2151C66.9266 34.0948 66.7509 34.0347 66.5167 34.0347H65.2285V35.538C65.2285 35.6582 65.2285 35.7184 65.17 35.7785C65.1114 35.8386 65.0529 35.8386 64.9943 35.8386C64.8772 35.8386 64.8187 35.7785 64.7601 35.7184C64.7016 35.6582 64.643 35.5981 64.643 35.4778V31.5092C64.643 31.4491 64.7016 31.3288 64.7601 31.2687C64.8187 31.2086 64.8772 31.1484 64.9943 31.1484H66.8095C67.0437 31.1484 67.2779 31.2086 67.4536 31.3288C67.6292 31.4491 67.8049 31.6295 67.922 31.8099C68.0391 31.9903 68.0977 32.2308 68.0977 32.4713C68.0977 32.7118 68.0391 32.9524 67.922 33.1328C67.8049 33.3733 67.6292 33.4935 67.4536 33.6138C67.6292 33.6739 67.7464 33.7942 67.8049 33.9746C67.922 34.0948 67.922 34.2752 67.9806 34.5158C67.9806 34.7563 68.0391 34.9367 68.0391 35.0569C68.0391 35.1772 68.0977 35.2373 68.1562 35.2373C68.0391 35.4177 68.0391 35.4177 68.0977 35.4778ZM66.9852 33.4334C67.1023 33.3733 67.1608 33.253 67.2194 33.1328C67.2779 33.0125 67.3365 32.8321 67.3365 32.6517C67.3365 32.4112 67.2779 32.2308 67.1608 32.1105C67.0437 31.9903 66.868 31.87 66.6924 31.87H65.2285V33.5537H66.6924C66.7509 33.5537 66.868 33.4935 66.9852 33.4334Z" fill="#7A7A7A"/>
<path d="M79.8669 31.3297C79.9254 31.3898 79.984 31.4499 79.984 31.5702V35.5989C79.984 35.6591 79.984 35.7793 79.9254 35.8395C79.8669 35.8996 79.8083 35.9597 79.6912 35.9597C79.5741 35.9597 79.5155 35.9597 79.457 35.8996C79.3984 35.8395 79.3399 35.7793 79.3399 35.6591V32.5924L78.1103 34.5166C78.0517 34.5767 78.0517 34.5767 77.9931 34.6369C77.9346 34.6369 77.876 34.697 77.876 34.697C77.8175 34.697 77.8175 34.697 77.7589 34.6369C77.7004 34.5767 77.7004 34.5767 77.6418 34.5166L76.4122 32.5323V35.6591C76.4122 35.7793 76.4122 35.8395 76.3536 35.8996C76.2951 35.9597 76.2365 35.9597 76.1194 35.9597C76.0609 35.9597 75.9438 35.9597 75.8852 35.8996C75.8267 35.8395 75.8267 35.7793 75.8267 35.6591V31.6303C75.8267 31.5702 75.8852 31.4499 75.9438 31.3898C76.0023 31.3297 76.0609 31.2695 76.178 31.2695C76.2365 31.2695 76.2951 31.2695 76.3536 31.3297C76.4122 31.3898 76.4708 31.3898 76.4708 31.4499L77.9931 33.795L79.5156 31.4499C79.5741 31.3297 79.6912 31.3297 79.7498 31.3297C79.7498 31.2695 79.8083 31.2695 79.8669 31.3297Z" fill="#7A7A7A"/>
<path d="M87.0698 35.5985C87.0698 35.6587 87.0698 35.7789 87.0112 35.839C86.9527 35.8992 86.8941 35.8992 86.8356 35.8992C86.777 35.8992 86.7184 35.8992 86.6599 35.839C86.6013 35.7789 86.5428 35.7789 86.5428 35.6587L86.1329 34.6966H84.1421L83.7322 35.6587C83.7322 35.7188 83.6737 35.7789 83.6151 35.839C83.5565 35.8992 83.498 35.8992 83.4394 35.8992C83.3223 35.8992 83.2638 35.8992 83.2052 35.839C83.1467 35.7789 83.1467 35.7188 83.1467 35.6587C83.1467 35.6587 83.1467 35.5985 83.1467 35.5384L84.7862 31.4495C84.8447 31.3894 84.8447 31.3292 84.9033 31.2691C84.9618 31.209 85.0204 31.209 85.0789 31.209C85.1375 31.209 85.1961 31.209 85.2546 31.2691C85.3132 31.3292 85.3717 31.3292 85.3717 31.4495L87.0112 35.4783C87.0112 35.5384 87.0698 35.5384 87.0698 35.5985ZM85.8401 34.1554L85.0789 32.2913L84.3177 34.1554H85.8401Z" fill="#7A7A7A"/>
<path d="M93.7437 35.4778C93.7437 35.538 93.8023 35.5981 93.8023 35.5981C93.8023 35.7184 93.8023 35.7785 93.7437 35.7785C93.6852 35.8386 93.6266 35.8386 93.5095 35.8386C93.451 35.8386 93.3339 35.8386 93.2753 35.7785C93.1582 35.7184 93.0411 35.5981 92.9825 35.4177C92.924 35.2373 92.8654 34.9968 92.8654 34.6962C92.8654 34.4556 92.8069 34.3354 92.6898 34.2151C92.5727 34.0948 92.397 34.0347 92.1628 34.0347H90.8746V35.538C90.8746 35.6582 90.8746 35.7184 90.8161 35.7785C90.7575 35.8386 90.6989 35.8386 90.6404 35.8386C90.5233 35.8386 90.4647 35.7785 90.4062 35.7184C90.3476 35.6582 90.2891 35.5981 90.2891 35.4778V31.5092C90.2891 31.4491 90.3476 31.3288 90.4062 31.2687C90.4647 31.2086 90.5233 31.1484 90.6404 31.1484H92.4556C92.6898 31.1484 92.924 31.2086 93.0996 31.3288C93.2753 31.4491 93.451 31.6295 93.5681 31.8099C93.6852 31.9903 93.7437 32.2308 93.7437 32.4713C93.7437 32.7118 93.6852 32.9524 93.5681 33.1328C93.451 33.3733 93.2753 33.4935 93.0996 33.6138C93.2753 33.6739 93.3924 33.7942 93.451 33.9746C93.5681 34.0948 93.5681 34.2752 93.6266 34.5158C93.6266 34.7563 93.6852 34.9367 93.6852 35.0569C93.6852 35.1772 93.7437 35.2373 93.8023 35.2373C93.6852 35.4177 93.7437 35.4177 93.7437 35.4778ZM92.6312 33.4334C92.7483 33.3733 92.8069 33.253 92.8654 33.1328C92.924 33.0125 92.9825 32.8321 92.9825 32.6517C92.9825 32.4112 92.924 32.2308 92.8069 32.1105C92.6898 31.9903 92.5141 31.87 92.3384 31.87H90.8746V33.5537H92.3384C92.397 33.5537 92.5141 33.4935 92.6312 33.4334Z" fill="#7A7A7A"/>
<path d="M100.594 35.5989C100.594 35.7192 100.535 35.7793 100.476 35.8395C100.418 35.8996 100.301 35.9597 100.242 35.9597C100.184 35.9597 100.067 35.8996 100.008 35.8395L98.4271 33.795L97.7244 34.5166V35.6591C97.7244 35.7793 97.6659 35.8395 97.6073 35.8996C97.5487 35.9597 97.4902 36.0199 97.3731 36.0199C97.256 36.0199 97.1974 35.9597 97.1389 35.8996C97.0803 35.8395 97.0803 35.7793 97.0803 35.6591V31.6904C97.0803 31.6303 97.1389 31.5101 97.1974 31.4499C97.256 31.3898 97.3145 31.3297 97.4316 31.3297C97.5487 31.3297 97.6073 31.3297 97.6659 31.3898C97.7244 31.4499 97.7244 31.5101 97.7244 31.6303V33.6748L100.008 31.3898C100.067 31.3297 100.184 31.2695 100.242 31.2695C100.301 31.2695 100.359 31.3297 100.418 31.3898C100.476 31.4499 100.476 31.5101 100.476 31.6303C100.476 31.6904 100.418 31.7506 100.359 31.8107L98.8369 33.314L100.418 35.4186C100.594 35.4186 100.594 35.4787 100.594 35.5989Z" fill="#7A7A7A"/>
<path d="M106.684 35.358C106.743 35.4181 106.743 35.4783 106.743 35.5985C106.743 35.6587 106.743 35.7789 106.684 35.839C106.626 35.8992 106.567 35.8992 106.45 35.8992H104.225C104.166 35.8992 104.049 35.839 103.991 35.7789C103.932 35.7188 103.873 35.6587 103.873 35.5384V31.5698C103.873 31.5096 103.932 31.3894 103.991 31.3292C104.049 31.2691 104.108 31.209 104.225 31.209H106.45C106.567 31.209 106.626 31.209 106.684 31.2691C106.743 31.3292 106.743 31.3894 106.743 31.5096C106.743 31.5698 106.743 31.69 106.684 31.7502C106.626 31.8103 106.567 31.8103 106.45 31.8103H104.518V33.1332H106.157C106.274 33.1332 106.333 33.1332 106.391 33.1933C106.45 33.2534 106.45 33.3136 106.45 33.4338C106.45 33.5541 106.45 33.6142 106.391 33.6743C106.333 33.7345 106.274 33.7345 106.157 33.7345H104.518V35.1776H106.45C106.567 35.2979 106.626 35.2979 106.684 35.358Z" fill="#7A7A7A"/>
<path d="M113.241 31.3297C113.3 31.3898 113.3 31.4499 113.3 31.5702C113.3 31.6904 113.3 31.7506 113.241 31.8107C113.183 31.8708 113.124 31.8708 113.007 31.8708H111.836V35.5989C111.836 35.6591 111.777 35.7793 111.719 35.8395C111.66 35.8996 111.602 35.9597 111.485 35.9597C111.368 35.9597 111.309 35.8996 111.25 35.8395C111.192 35.7793 111.133 35.7192 111.133 35.5989V31.8708H110.079C109.962 31.8708 109.904 31.8708 109.845 31.8107C109.787 31.7506 109.787 31.6904 109.787 31.5702C109.787 31.5101 109.787 31.3898 109.845 31.3297C109.904 31.2695 109.962 31.2695 110.079 31.2695H113.007C113.124 31.2695 113.183 31.2695 113.241 31.3297Z" fill="#7A7A7A"/>
<path d="M119.039 31.4485C119.215 31.5688 119.39 31.7492 119.507 31.9897C119.625 32.2302 119.683 32.4708 119.683 32.7113C119.683 32.9518 119.625 33.1923 119.507 33.4329C119.39 33.6734 119.215 33.8538 119.039 33.974C118.863 34.0943 118.629 34.1544 118.395 34.1544H117.165V35.5976C117.165 35.6577 117.165 35.778 117.107 35.8381C117.048 35.8982 116.99 35.9583 116.873 35.9583C116.755 35.9583 116.697 35.9583 116.638 35.8982C116.58 35.8381 116.58 35.778 116.58 35.6577V31.6891C116.58 31.6289 116.638 31.5087 116.697 31.4485C116.755 31.3884 116.814 31.3283 116.931 31.3283H118.453C118.629 31.2681 118.805 31.3283 119.039 31.4485ZM118.688 33.3727C118.805 33.3126 118.863 33.1923 118.922 33.0721C118.98 32.9518 118.98 32.8315 118.98 32.6512C118.98 32.4106 118.922 32.2302 118.805 32.0498C118.688 31.8695 118.512 31.8093 118.336 31.8093H117.107V33.4329H118.336C118.512 33.493 118.629 33.493 118.688 33.3727Z" fill="#7A7A7A"/>
<path d="M125.655 35.358C125.714 35.4181 125.714 35.4783 125.714 35.5985C125.714 35.6587 125.714 35.7789 125.655 35.839C125.597 35.8992 125.538 35.8992 125.421 35.8992H123.255C123.138 35.8992 123.079 35.839 123.02 35.7789C122.962 35.7188 122.962 35.6587 122.962 35.5384V31.5698C122.962 31.5096 123.02 31.3894 123.079 31.3292C123.138 31.2691 123.196 31.209 123.313 31.209C123.372 31.209 123.489 31.2691 123.547 31.3292C123.606 31.3894 123.664 31.4495 123.664 31.5698V35.2377H125.538C125.538 35.2979 125.597 35.2979 125.655 35.358Z" fill="#7A7A7A"/>
<path d="M132.507 35.5966C132.507 35.6567 132.507 35.777 132.448 35.8371C132.39 35.8972 132.331 35.8972 132.272 35.8972C132.214 35.8972 132.155 35.8972 132.097 35.8371C132.038 35.777 131.98 35.777 131.98 35.6567L131.57 34.6946H129.579L129.169 35.6567C129.169 35.7168 129.111 35.777 129.052 35.8371C128.993 35.8972 128.935 35.8972 128.876 35.8972C128.759 35.8972 128.701 35.8972 128.642 35.8371C128.584 35.777 128.584 35.7168 128.584 35.6567C128.584 35.6567 128.584 35.5966 128.584 35.5364L130.223 31.4476C130.282 31.3874 130.282 31.3273 130.34 31.2672C130.399 31.207 130.457 31.207 130.516 31.207C130.574 31.207 130.633 31.207 130.692 31.2672C130.75 31.3273 130.809 31.3273 130.809 31.4476L132.448 35.4763C132.507 35.5364 132.507 35.5364 132.507 35.5966ZM131.277 34.1534L130.516 32.2894L129.755 34.1534H131.277Z" fill="#7A7A7A"/>
<path d="M139.006 31.8103C139.006 31.8704 139.006 31.9907 138.947 32.0508C138.889 32.1109 138.83 32.1711 138.713 32.1711C138.654 32.1711 138.596 32.1711 138.537 32.1109C138.245 31.9306 138.01 31.8704 137.659 31.8704C137.308 31.8704 137.074 31.9306 136.781 32.1109C136.547 32.2312 136.312 32.4717 136.195 32.7123C136.078 32.9528 135.961 33.2534 135.961 33.6142C135.961 33.975 136.02 34.2757 136.195 34.5763C136.371 34.877 136.547 35.0573 136.781 35.1776C137.015 35.2979 137.308 35.358 137.601 35.358C137.893 35.358 138.186 35.2979 138.479 35.1175C138.537 35.1175 138.596 35.0573 138.654 35.0573C138.772 35.0573 138.83 35.1175 138.889 35.1776C138.947 35.2377 138.947 35.2979 138.947 35.4181C138.947 35.4783 138.947 35.5384 138.889 35.5384C138.889 35.5985 138.83 35.5985 138.772 35.6587C138.596 35.7789 138.42 35.839 138.186 35.8992C137.952 35.9593 137.776 35.9593 137.601 35.9593C137.191 35.9593 136.781 35.839 136.429 35.6587C136.078 35.4783 135.785 35.1776 135.61 34.8168C135.375 34.456 135.317 34.0351 135.317 33.5541C135.317 33.1332 135.434 32.7123 135.61 32.3515C135.785 31.9907 136.078 31.69 136.429 31.5096C136.781 31.3292 137.191 31.209 137.601 31.209C138.01 31.209 138.42 31.3292 138.772 31.5096C138.947 31.5698 139.006 31.69 139.006 31.8103Z" fill="#7A7A7A"/>
<path d="M145.036 35.356C145.095 35.4162 145.095 35.4763 145.095 35.5966C145.095 35.6567 145.095 35.777 145.036 35.8371C144.978 35.8972 144.919 35.8972 144.802 35.8972H142.577C142.519 35.8972 142.402 35.8371 142.343 35.777C142.284 35.7168 142.226 35.6567 142.226 35.5364V31.5678C142.226 31.5077 142.284 31.3874 142.343 31.3273C142.402 31.2672 142.46 31.207 142.577 31.207H144.802C144.919 31.207 144.978 31.207 145.036 31.2672C145.095 31.3273 145.095 31.3874 145.095 31.5077C145.095 31.5678 145.095 31.6881 145.036 31.7482C144.978 31.8083 144.919 31.8083 144.802 31.8083H142.87V33.1312H144.509C144.627 33.1312 144.685 33.1312 144.744 33.1913C144.802 33.2515 144.802 33.3116 144.802 33.4319C144.802 33.5521 144.802 33.6123 144.744 33.6724C144.685 33.7325 144.627 33.7325 144.509 33.7325H142.87V35.1757H144.802C144.919 35.2959 144.978 35.2959 145.036 35.356Z" fill="#7A7A7A"/>
<defs>
<linearGradient id="paint0_linear_0_1225" x1="4.06877" y1="14.4247" x2="40.2727" y2="30.8642" gradientUnits="userSpaceOnUse">
<stop stop-color="#57D0D5"/>
<stop offset="0.5471" stop-color="#5C8CD2"/>
<stop offset="1" stop-color="#6151CF"/>
</linearGradient>
</defs>
</svg>