<svg class="navicons" width="24" height="24" viewBox="0 0 24 24" fill="none" xmlns="http://www.w3.org/2000/svg">
<path fill-rule="evenodd" clip-rule="evenodd" d="M12 21C7.02944 21 3 16.9706 3 12C3 7.02944 7.02944 3 12 3C16.9706 3 21 7.02944 21 12C21 16.9706 16.9706 21 12 21ZM2 12C2 6.47715 6.47715 2 12 2C17.5228 2 22 6.47715 22 12C22 17.5228 17.5228 22 12 22C6.47715 22 2 17.5228 2 12ZM11.1246 14.2855V14.3409H12.2326V14.2855C12.2387 13.9039 12.2787 13.5853 12.3526 13.3299C12.4264 13.0745 12.5449 12.8544 12.7081 12.6697C12.8712 12.482 13.0881 12.3035 13.359 12.1342C13.6298 11.968 13.8606 11.7772 14.0514 11.5618C14.2453 11.3464 14.3931 11.1017 14.4946 10.8278C14.5993 10.5539 14.6516 10.2476 14.6516 9.90909C14.6516 9.42898 14.5408 9.00118 14.3192 8.62571C14.1007 8.25024 13.7898 7.95478 13.3867 7.73935C12.9866 7.52391 12.5157 7.41619 11.974 7.41619C11.4755 7.41619 11.0215 7.51468 10.6122 7.71165C10.2059 7.90862 9.87815 8.1933 9.62886 8.5657C9.38265 8.93809 9.24723 9.38589 9.22261 9.90909H10.386C10.4106 9.54593 10.5014 9.25201 10.6583 9.02734C10.8153 8.80268 11.0107 8.63802 11.2446 8.53338C11.4785 8.42874 11.7217 8.37642 11.974 8.37642C12.2633 8.37642 12.5265 8.43643 12.7635 8.55646C13.0004 8.67649 13.1897 8.8473 13.3313 9.06889C13.4728 9.29048 13.5436 9.55208 13.5436 9.85369C13.5436 10.0968 13.5005 10.3184 13.4144 10.5185C13.3313 10.7185 13.2174 10.8955 13.0728 11.0494C12.9281 11.2002 12.765 11.331 12.5834 11.4418C12.2818 11.6233 12.0233 11.8219 11.8078 12.0373C11.5924 12.2527 11.4262 12.5343 11.3093 12.8821C11.1923 13.2299 11.1308 13.6977 11.1246 14.2855ZM11.1292 16.8292C11.2923 16.9923 11.4878 17.0739 11.7155 17.0739C11.8694 17.0739 12.0079 17.0369 12.131 16.9631C12.2572 16.8861 12.3572 16.7846 12.4311 16.6584C12.508 16.5322 12.5465 16.3937 12.5465 16.2429C12.5465 16.0152 12.4649 15.8197 12.3018 15.6566C12.1387 15.4935 11.9433 15.4119 11.7155 15.4119C11.4878 15.4119 11.2923 15.4935 11.1292 15.6566C10.9661 15.8197 10.8845 16.0152 10.8845 16.2429C10.8845 16.4706 10.9661 16.6661 11.1292 16.8292Z" fill="#404040"/>
</svg>
