<svg class="navicons" width="24" height="24" viewBox="0 0 24 24" fill="none" xmlns="http://www.w3.org/2000/svg">
<path d="M9.00026 18H4.76297C3.89063 18 3.45375 17.0836 3.9525 16.4733C5.15625 15 6.0061 14.25 6.00844 10.1883C6.00844 6.465 7.90594 5.14453 9.4711 4.5C9.67875 4.41469 9.87422 4.22203 9.9375 4.00641C10.2089 3.07266 10.9781 2.25 12 2.25C13.0219 2.25 13.7906 3.07219 14.0648 4.00547C14.1281 4.21875 14.3236 4.41469 14.5313 4.5C16.0945 5.14359 17.9939 6.46875 17.9939 10.1883C17.9939 14.25 18.8438 15 20.0475 16.4733C20.5434 17.0808 20.1094 18 19.2417 18H15.0003M9.00026 18L9.50026 19C10.0003 20 11.2046 20.5 12.0003 20.5C12.7959 20.5 14.0003 20 14.5003 19L15.0003 18M9.00026 18H15.0003" stroke="#404040" stroke-linecap="round" stroke-linejoin="round"/>
</svg>