<svg class="navicons" width="24" height="24" viewBox="0 0 24 24" fill="none" xmlns="http://www.w3.org/2000/svg">
<path fill-rule="evenodd" clip-rule="evenodd" d="M12 21C7.02944 21 3 16.9706 3 12C3 7.02944 7.02944 3 12 3C16.9706 3 21 7.02944 21 12C21 16.9706 16.9706 21 12 21ZM2 12C2 6.47715 6.47715 2 12 2C17.5228 2 22 6.47715 22 12C22 17.5228 17.5228 22 12 22C6.47715 22 2 17.5228 2 12ZM12.7286 8.11429V11.5H15.8857C16.225 11.5 16.5 11.775 16.5 12.1143C16.5 12.4535 16.225 12.7286 15.8857 12.7286H12.7286V15.8857C12.7286 16.225 12.4535 16.5 12.1143 16.5C11.775 16.5 11.5 16.225 11.5 15.8857V12.7286H8.11429C7.77503 12.7286 7.5 12.4535 7.5 12.1143C7.5 11.775 7.77503 11.5 8.11429 11.5L11.5 11.5V8.11429C11.5 7.77502 11.775 7.5 12.1143 7.5C12.4535 7.5 12.7286 7.77502 12.7286 8.11429Z" fill="url(#paint0_linear_0_629)"/>
<defs>
<linearGradient id="paint0_linear_0_629" x1="-0.5" y1="5" x2="20.2336" y2="15.8493" gradientUnits="userSpaceOnUse">
<stop stop-color="#7AF9EA"/>
<stop offset="0.435" stop-color="#8FA0FA"/>
<stop offset="1" stop-color="#977FF7"/>
</linearGradient>
</defs>
</svg>