<svg width="24" height="24" viewBox="0 0 24 24" fill="none" xmlns="http://www.w3.org/2000/svg">
<path d="M17 9.91549L7 4.35712M13.4171 2.36583L20.56 6.3359C20.9975 6.57899 21.3611 6.9303 21.614 7.3542C21.8669 7.7781 22.0001 8.25952 22 8.74962V15.2501C22.0001 15.7402 21.8669 16.2217 21.614 16.6456C21.3611 17.0695 20.9975 17.4208 20.56 17.6639L13.4171 21.6339C12.9855 21.8737 12.4971 21.9999 12 21.9999C11.5029 21.9999 11.0145 21.8737 10.5829 21.6339L3.44 17.6639C3.00249 17.4208 2.63885 17.0695 2.38596 16.6456C2.13306 16.2217 1.99991 15.7402 2 15.2501V8.74962C1.99991 8.25952 2.13306 7.7781 2.38596 7.3542C2.63885 6.9303 3.00249 6.57899 3.44 6.3359L10.5829 2.36583C11.0145 2.12602 11.5029 1.99988 12 1.99988C12.4971 1.99988 12.9855 2.12602 13.4171 2.36583Z" stroke="#404040" stroke-linecap="round" stroke-linejoin="round"/>
<path d="M2.5 7.49988L10.6874 12.1859C11.0908 12.4055 11.5418 12.5204 12 12.5204C12.4582 12.5204 12.9092 12.4055 13.3126 12.1859L21.5 7.49988M12 12.8999V21.9999" stroke="#404040" stroke-linecap="round" stroke-linejoin="round"/>
</svg>
