<svg width="184" height="158" viewBox="0 0 184 158" fill="none" xmlns="http://www.w3.org/2000/svg">
<g opacity="0.4">
<line x1="-45.0607" y1="84.3602" x2="96.3607" y2="-57.0611" stroke="#E49561" stroke-width="3"/>
<line x1="-55.0607" y1="74.3602" x2="86.3607" y2="-67.0611" stroke="#E49561" stroke-width="3"/>
<line x1="-35.0607" y1="94.3602" x2="106.361" y2="-47.0611" stroke="#E49561" stroke-width="3"/>
<line x1="-25.0607" y1="104.36" x2="116.361" y2="-37.0611" stroke="#E49561" stroke-width="3"/>
<line x1="-15.0607" y1="114.36" x2="126.361" y2="-27.0611" stroke="#E49561" stroke-width="3"/>
<line x1="-5.06066" y1="124.36" x2="136.361" y2="-17.0611" stroke="#E49561" stroke-width="3"/>
<line x1="-4.63879" y1="143.939" x2="146.361" y2="-7.06066" stroke="#E49561" stroke-width="3"/>
<line x1="2.93934" y1="156.361" x2="169.939" y2="-10.6388" stroke="#E49561" stroke-width="3"/>
<line x1="13.9393" y1="165.361" x2="188.939" y2="-9.63879" stroke="#E49561" stroke-width="3"/>
<line x1="34.9393" y1="164.361" x2="202.939" y2="-3.63878" stroke="#E49561" stroke-width="3"/>
<line x1="44.9393" y1="174.361" x2="186.361" y2="32.9399" stroke="#E49561" stroke-width="3"/>
<line x1="54.9393" y1="184.361" x2="196.361" y2="42.9399" stroke="#E49561" stroke-width="3"/>
<line x1="64.9393" y1="194.361" x2="206.361" y2="52.9399" stroke="#E49561" stroke-width="3"/>
<line x1="74.9393" y1="204.361" x2="216.361" y2="62.9399" stroke="#E49561" stroke-width="3"/>
<line x1="84.9393" y1="214.361" x2="226.361" y2="72.9399" stroke="#E49561" stroke-width="3"/>
<line x1="94.9393" y1="224.361" x2="236.361" y2="82.9399" stroke="#E49561" stroke-width="3"/>
</g>
</svg>
