<svg width="184" height="158" viewBox="0 0 184 158" fill="none" xmlns="http://www.w3.org/2000/svg">
<line opacity="0.1" x1="-8" y1="6.78906" x2="192" y2="6.78907" stroke="#4D4D4D" stroke-width="3"/>
<line opacity="0.1" x1="-8" y1="20.9316" x2="192" y2="20.9316" stroke="#4D4D4D" stroke-width="3"/>
<line opacity="0.1" x1="-8" y1="35.0742" x2="192" y2="35.0742" stroke="#4D4D4D" stroke-width="3"/>
<line opacity="0.1" x1="-8" y1="49.2158" x2="192" y2="49.2158" stroke="#4D4D4D" stroke-width="3"/>
<line opacity="0.1" x1="-8" y1="63.3574" x2="192" y2="63.3574" stroke="#4D4D4D" stroke-width="3"/>
<line opacity="0.1" x1="-8" y1="77.5" x2="192" y2="77.5" stroke="#4D4D4D" stroke-width="3"/>
<line opacity="0.1" x1="-8" y1="91.6416" x2="192" y2="91.6416" stroke="#4D4D4D" stroke-width="3"/>
<line opacity="0.1" x1="-8" y1="105.784" x2="192" y2="105.784" stroke="#4D4D4D" stroke-width="3"/>
<line opacity="0.1" x1="-8" y1="119.926" x2="192" y2="119.926" stroke="#4D4D4D" stroke-width="3"/>
<line opacity="0.1" x1="-8" y1="134.068" x2="192" y2="134.068" stroke="#4D4D4D" stroke-width="3"/>
<line opacity="0.1" x1="-8" y1="148.211" x2="192" y2="148.211" stroke="#4D4D4D" stroke-width="3"/>
<line opacity="0.1" x1="178.352" y1="-21" x2="178.352" y2="179" stroke="#4D4D4D" stroke-width="3"/>
<line opacity="0.1" x1="164.211" y1="-21" x2="164.211" y2="179" stroke="#4D4D4D" stroke-width="3"/>
<line opacity="0.1" x1="150.068" y1="-21" x2="150.068" y2="179" stroke="#4D4D4D" stroke-width="3"/>
<line opacity="0.1" x1="135.926" y1="-21" x2="135.926" y2="179" stroke="#4D4D4D" stroke-width="3"/>
<line opacity="0.1" x1="121.785" y1="-21" x2="121.785" y2="179" stroke="#4D4D4D" stroke-width="3"/>
<line opacity="0.1" x1="107.643" y1="-21" x2="107.643" y2="179" stroke="#4D4D4D" stroke-width="3"/>
<line opacity="0.1" x1="93.5" y1="-21" x2="93.5" y2="179" stroke="#4D4D4D" stroke-width="3"/>
<line opacity="0.1" x1="79.3594" y1="-21" x2="79.3594" y2="179" stroke="#4D4D4D" stroke-width="3"/>
<line opacity="0.1" x1="65.2148" y1="-21" x2="65.2148" y2="179" stroke="#4D4D4D" stroke-width="3"/>
<line opacity="0.1" x1="51.0742" y1="-21" x2="51.0742" y2="179" stroke="#4D4D4D" stroke-width="3"/>
<line opacity="0.1" x1="36.9316" y1="-21" x2="36.9316" y2="179" stroke="#4D4D4D" stroke-width="3"/>
<line opacity="0.1" x1="22.7891" y1="-21" x2="22.789" y2="179" stroke="#4D4D4D" stroke-width="3"/>
<line opacity="0.1" x1="8.64844" y1="-21" x2="8.64842" y2="179" stroke="#4D4D4D" stroke-width="3"/>
</svg>